# xmcd
#
# Track frame offsets: 
#        183
#        22558
#        44945
#        65408
#        85008
#        99670
#        118683
#        131995
#        146283
#
# Disc length: 2168 seconds
#
# Revision: 1
# Processed by: cddbd v1.5.2PL0 Copyright (c) Steve Scherf et al.
# Submitted via: ExactAudioCopyFreeDBPlugin 1.0
#
DISCID=78087609
DTITLE=Cream - Wheels of Fire [RSO, 827 578-2, W.Germany] disc 1
DYEAR=1968
DGENRE=Rock
TTITLE0=White Room
TTITLE1=Sitting On Top Of The World
TTITLE2=Passing TheTime
TTITLE3=As You Said
TTITLE4=Pressed Rat And Warthog
TTITLE5=Politician
TTITLE6=Those Were The Days
TTITLE7=Born Under A Bad Sign
TTITLE8=Deserted Cities Of The Heart
EXTD=
EXTT0=
EXTT1=
EXTT2=
EXTT3=
EXTT4=
EXTT5=
EXTT6=
EXTT7=
EXTT8=
PLAYORDER=
